<svg width="273" height="275" viewBox="0 0 273 275" fill="none" xmlns="http://www.w3.org/2000/svg">
<path d="M126.834 105.641C162.117 99.5865 191.417 99.3416 212.694 102.226C223.353 103.671 231.738 105.866 237.762 108.345C243.652 110.768 246.221 113.022 247.076 114.153C247.094 114.623 246.955 116.07 245.343 119.054C242.822 123.721 237.746 129.949 229.592 137.357C213.455 152.02 187.12 169.642 151.529 187.136C114.525 202.305 83.2317 204.1 60.8671 199.832C49.6228 197.686 40.8235 194.048 34.667 189.994C28.3623 185.841 25.5567 181.767 24.7278 179.036C23.974 176.553 24.0929 171.821 27.3164 164.948C30.4503 158.267 36.1123 150.508 44.5956 142.711C61.5121 127.165 88.9358 112.144 126.834 105.641ZM247.053 113.975C247.055 113.975 247.061 113.995 247.067 114.038C247.054 113.998 247.051 113.976 247.053 113.975Z" stroke="url(#paint0_linear_304_5)" stroke-width="20"/>
<path d="M185.055 155.446C168.392 187.21 150.447 211.759 135.052 227.461C127.32 235.347 120.536 240.689 115.166 243.673C110.142 246.465 107.919 246.358 107.575 246.342C107.538 246.34 107.523 246.34 107.528 246.344C107.204 246.197 105.248 245.031 102.987 239.73C100.761 234.508 98.8728 226.679 97.8772 216.041C95.8985 194.897 97.5996 164.404 105.324 125.541C115.761 86.9351 133.349 60.9901 150.328 45.8208C158.865 38.1941 167.101 33.4161 174.062 30.99C181.19 28.5055 186.131 28.7526 188.803 29.7537C191.234 30.6641 194.92 33.6335 198.42 40.3699C201.822 46.9188 204.544 56.1302 205.582 67.605C207.65 90.4868 202.918 121.395 185.055 155.446Z" stroke="url(#paint1_linear_304_5)" stroke-width="20"/>
<path d="M159.693 118.602C182.32 146.434 197.81 172.601 206.174 192.938C210.375 203.153 212.611 211.493 213.237 217.605C213.823 223.322 212.85 225.323 212.699 225.633C212.683 225.666 212.676 225.68 212.682 225.676C212.419 225.916 210.577 227.255 204.814 227.243C199.138 227.232 191.198 225.882 181.028 222.604C160.816 216.09 133.461 202.51 100.788 180.095C69.4188 155.288 52.5049 128.899 45.2545 107.316C41.6091 96.4645 40.4636 87.0119 40.9771 79.6582C41.503 72.1273 43.6771 67.6842 45.6504 65.6223C47.4452 63.7471 51.6266 61.53 59.1972 60.968C66.5571 60.4216 76.0958 61.55 87.0508 65.1187C108.896 72.235 135.437 88.7653 159.693 118.602Z" stroke="url(#paint2_linear_304_5)" stroke-width="20"/>
<path d="M146.152 96L165.337 134.571H126.968L146.152 96Z" fill="#E0E1FF"/>
<path d="M146.152 96L165.337 134.571H126.968L146.152 96Z" fill="url(#paint3_linear_304_5)" fill-opacity="0.3"/>
<path d="M146.152 176L126.968 137.429H165.336L146.152 176Z" fill="#AAA3FF"/>
<path d="M146.152 176L126.968 137.429H165.336L146.152 176Z" fill="url(#paint4_linear_304_5)" fill-opacity="0.2"/>
<path d="M146.152 176L155.784 137.401L165.293 137.401L146.152 176Z" fill="#4B3EE1"/>
<path d="M146.152 176L155.784 137.401L165.293 137.401L146.152 176Z" fill="url(#paint5_linear_304_5)" fill-opacity="0.43"/>
<path d="M146.152 96L165.415 134.571L155.784 134.571L146.152 96Z" fill="#9982DA"/>
<defs>
<linearGradient id="paint0_linear_304_5" x1="15.6496" y1="183.558" x2="278.517" y2="103.775" gradientUnits="userSpaceOnUse">
<stop stop-color="#F9D7FF"/>
<stop offset="0.670212" stop-color="#4B3EE1"/>
</linearGradient>
<linearGradient id="paint1_linear_304_5" x1="190.728" y1="19.7963" x2="94.3712" y2="277.051" gradientUnits="userSpaceOnUse">
<stop stop-color="#F9D7FF"/>
<stop offset="0.670212" stop-color="#4B3EE1"/>
</linearGradient>
<linearGradient id="paint2_linear_304_5" x1="37.2575" y1="59.9289" x2="235.719" y2="249.87" gradientUnits="userSpaceOnUse">
<stop stop-color="#F9D7FF"/>
<stop offset="0.670212" stop-color="#4B3EE1"/>
</linearGradient>
<linearGradient id="paint3_linear_304_5" x1="146.152" y1="96" x2="146.152" y2="147.429" gradientUnits="userSpaceOnUse">
<stop stop-color="#FFA5F6" stop-opacity="0.98"/>
<stop offset="1" stop-color="#468ED1" stop-opacity="0.05"/>
</linearGradient>
<linearGradient id="paint4_linear_304_5" x1="146.152" y1="176" x2="144" y2="135" gradientUnits="userSpaceOnUse">
<stop stop-color="#010006"/>
<stop offset="1" stop-color="#FF46ED" stop-opacity="0"/>
</linearGradient>
<linearGradient id="paint5_linear_304_5" x1="146.5" y1="176" x2="145.766" y2="137.696" gradientUnits="userSpaceOnUse">
<stop/>
<stop offset="1" stop-opacity="0"/>
</linearGradient>
</defs>
</svg>
