<?xml version="1.0" standalone="no"?>
<!DOCTYPE svg PUBLIC "-//W3C//DTD SVG 1.1//EN" "http://www.w3.org/Graphics/SVG/1.1/DTD/svg11.dtd">
<svg class="clear-option" width="16px" height="16px" viewBox="0 0 1024 1024">
    <path 
    fill="#8a8a8a" 
    d="M512 104.489796c230.838857 0 417.959184 187.120327 417.959184 417.959184s-187.120327 417.959184-417.959184 417.959183S94.040816 753.287837 94.040816 522.44898 281.161143 104.489796 512 104.489796z m0 83.591837C327.324735 188.081633 177.632653 337.773714 177.632653 522.44898s149.692082 334.367347 334.367347 334.367347 334.367347-149.692082 334.367347-334.367347S696.675265 188.081633 512 188.081633z m-103.444898 171.82302l103.444898 103.444898 103.444898-103.444898a20.897959 20.897959 0 0 1 29.549714 0l29.549715 29.549714a20.897959 20.897959 0 0 1 0 29.549715L571.141224 522.44898l103.444898 103.444898a20.897959 20.897959 0 0 1 0 29.549714l-29.570612 29.549714a20.897959 20.897959 0 0 1-29.549714 0L512 581.548408l-103.444898 103.444898a20.897959 20.897959 0 0 1-29.549714 0l-29.549715-29.549714a20.897959 20.897959 0 0 1 0-29.549714l103.444898-103.444898-103.444898-103.444898a20.897959 20.897959 0 0 1 0-29.549715l29.549715-29.549714a20.897959 20.897959 0 0 1 29.549714 0z"  />
</svg>