<svg width="711" height="714" viewBox="0 0 711 714" fill="none" xmlns="http://www.w3.org/2000/svg">
<path d="M332.068 277.512C423.952 261.745 500.109 261.135 555.246 268.609C582.875 272.355 604.444 278.025 619.795 284.341C632.966 289.76 639.164 294.663 641.614 297.226C641.322 298.793 640.402 301.849 637.67 306.906C631.379 318.555 618.471 334.487 597.318 353.708C555.521 391.684 487.086 437.52 394.352 483.111C298.317 522.454 217.354 527.005 159.77 516.015C130.792 510.485 108.299 501.141 92.7129 490.877C76.6822 480.32 70.1289 470.326 68.3166 464.355C66.7295 459.125 66.6794 447.797 74.8813 430.31C82.8141 413.396 97.2694 393.517 119.146 373.412C162.749 333.34 233.705 294.391 332.068 277.512ZM641.719 295.903C641.73 295.898 641.747 296.002 641.739 296.229C641.704 296.021 641.708 295.908 641.719 295.903Z" stroke="url(#paint0_linear_304_5)" stroke-width="60"/>
<path d="M480.118 402.038C436.711 484.783 390.031 548.598 350.125 589.301C330.068 609.758 312.635 623.438 299.045 630.99C288.551 636.821 283.411 637.37 282.08 637.472C280.837 636.488 277.101 632.956 272.664 622.551C267.058 609.405 262.184 589.377 259.604 561.809C254.482 507.071 258.864 427.833 278.98 326.58C306.085 226.401 351.666 159.333 395.383 120.275C417.382 100.62 438.471 88.4328 456.093 82.2908C474.219 75.9736 486.138 76.8413 491.982 79.0301C497.099 80.9469 506.127 87.7903 515.032 104.93C523.645 121.507 530.651 145.068 533.326 174.659C538.658 233.638 526.48 313.659 480.118 402.038Z" stroke="url(#paint1_linear_304_5)" stroke-width="60"/>
<path d="M414.272 310.005C473.214 382.507 513.468 450.558 535.15 503.276C546.047 529.772 551.75 551.184 553.335 566.651C554.559 578.594 553.037 583.535 552.607 584.798C551.212 585.552 546.494 587.594 535.183 587.572C520.891 587.543 500.563 584.129 474.21 575.636C421.883 558.772 350.784 523.517 265.654 465.127C184.264 400.735 140.586 332.413 121.918 276.842C112.523 248.877 109.633 224.692 110.933 206.075C112.27 186.927 117.765 176.314 122.08 171.806C125.858 167.858 135.705 162.258 154.968 160.828C173.598 159.445 198.012 162.291 226.263 171.494C282.57 189.836 351.316 232.565 414.272 310.005Z" stroke="url(#paint2_linear_304_5)" stroke-width="60"/>
<path d="M381.893 248.506L432.021 349.292H331.764L381.893 248.506Z" fill="#E0E1FF"/>
<path d="M381.893 248.506L432.021 349.292H331.764L381.893 248.506Z" fill="url(#paint3_linear_304_5)" fill-opacity="0.3"/>
<path d="M381.893 457.544L331.764 356.758H432.021L381.893 457.544Z" fill="#AAA3FF"/>
<path d="M381.893 457.544L331.764 356.758H432.021L381.893 457.544Z" fill="url(#paint4_linear_304_5)" fill-opacity="0.2"/>
<path d="M381.893 248.506L432.226 349.292L407.059 349.292L381.893 248.506Z" fill="#9982DA"/>
<path d="M381.893 457.544L407.059 356.686L431.906 356.686L381.893 457.544Z" fill="#4B3EE1"/>
<path d="M381.893 457.544L407.059 356.686L431.906 356.686L381.893 457.544Z" fill="url(#paint5_linear_304_5)" fill-opacity="0.43"/>
<defs>
<linearGradient id="paint0_linear_304_5" x1="40.8922" y1="477.293" x2="727.76" y2="268.822" gradientUnits="userSpaceOnUse">
<stop stop-color="#F9D7FF"/>
<stop offset="0.670212" stop-color="#4B3EE1"/>
</linearGradient>
<linearGradient id="paint1_linear_304_5" x1="498.369" y1="49.3873" x2="246.59" y2="721.589" gradientUnits="userSpaceOnUse">
<stop stop-color="#F9D7FF"/>
<stop offset="0.670212" stop-color="#4B3EE1"/>
</linearGradient>
<linearGradient id="paint2_linear_304_5" x1="97.3531" y1="154.253" x2="615.93" y2="650.565" gradientUnits="userSpaceOnUse">
<stop stop-color="#F9D7FF"/>
<stop offset="0.670212" stop-color="#4B3EE1"/>
</linearGradient>
<linearGradient id="paint3_linear_304_5" x1="381.893" y1="248.506" x2="381.893" y2="382.888" gradientUnits="userSpaceOnUse">
<stop stop-color="#FFA5F6" stop-opacity="0.98"/>
<stop offset="1" stop-color="#468ED1" stop-opacity="0.05"/>
</linearGradient>
<linearGradient id="paint4_linear_304_5" x1="381.893" y1="457.544" x2="376.269" y2="350.412" gradientUnits="userSpaceOnUse">
<stop stop-color="#010006"/>
<stop offset="1" stop-color="#FF46ED" stop-opacity="0"/>
</linearGradient>
<linearGradient id="paint5_linear_304_5" x1="382.801" y1="457.544" x2="380.884" y2="357.457" gradientUnits="userSpaceOnUse">
<stop/>
<stop offset="1" stop-opacity="0"/>
</linearGradient>
</defs>
</svg>
