<svg width="402" height="402" viewBox="0 0 402 402" fill="none" xmlns="http://www.w3.org/2000/svg">
<rect x="175.877" y="0.877258" width="50" height="104.167" rx="25" fill="#D9D9D9"/>
<rect x="296.877" y="214.877" width="50" height="104.167" rx="25" transform="rotate(-90 296.877 214.877)" fill="#D9D9D9"/>
<rect x="0.877197" y="214.877" width="50" height="104.167" rx="25" transform="rotate(-90 0.877197 214.877)" fill="#D9D9D9"/>
<rect x="175.877" y="296.877" width="50" height="104.167" rx="25" fill="#D9D9D9"/>
<rect x="49.6396" y="69.4945" width="50" height="104.167" rx="25" transform="rotate(-45 49.6396 69.4945)" fill="#D9D9D9"/>
<rect x="258.943" y="278.798" width="50" height="104.167" rx="25" transform="rotate(-45 258.943 278.798)" fill="#D9D9D9"/>
<rect x="115.401" y="251.221" width="50" height="104.167" rx="25" transform="rotate(45 115.401 251.221)" fill="#D9D9D9"/>
<rect x="324.704" y="41.9173" width="50" height="104.167" rx="25" transform="rotate(45 324.704 41.9173)" fill="#D9D9D9"/>
</svg>
