<svg width="328" height="325" viewBox="0 0 328 325" fill="none" xmlns="http://www.w3.org/2000/svg">
<g filter="url(#filter0_d_1_15)">
<path d="M173.357 142.684C209.709 161.67 244.416 184.089 269.204 203.665C281.62 213.471 291.397 222.446 297.645 229.824C300.781 233.527 302.875 236.651 304.01 239.136C305.196 241.734 305 242.881 304.884 243.18C304.707 243.634 304.012 244.638 301.617 245.789C299.288 246.91 295.896 247.898 291.379 248.647C282.37 250.142 269.77 250.55 254.371 249.816C223.663 248.352 182.609 242.39 138.549 232.21C93.9937 219.099 63.2631 199.065 44.8123 179.841C35.5681 170.209 29.4874 160.867 26.2331 152.791C22.937 144.61 22.7317 138.248 24.3255 134.147C25.8725 130.166 30.3727 125.807 38.558 122.283C46.6167 118.813 57.6519 116.431 71.0924 115.994C97.9398 115.123 133.831 122.04 173.357 142.684Z" stroke="#7579FF" stroke-width="9"/>
<path d="M260.277 163.383C247.952 202.498 231.96 240.596 217.03 268.43C209.551 282.372 202.427 293.57 196.258 301.014C193.162 304.75 190.453 307.36 188.205 308.912C185.855 310.534 184.691 310.542 184.377 310.481C183.899 310.386 182.788 309.878 181.235 307.722C179.725 305.625 178.157 302.458 176.628 298.142C173.578 289.535 170.969 277.201 168.994 261.912C165.056 231.422 163.733 189.959 166.037 144.796C171.14 98.6333 185.48 64.8683 201.174 43.335C209.038 32.5463 217.17 24.9231 224.552 20.3041C232.028 15.6258 238.256 14.3093 242.572 15.1599C246.763 15.9857 251.843 19.6525 256.746 27.0939C261.574 34.4201 265.853 44.8672 268.638 58.0234C274.199 84.3029 273.677 120.851 260.277 163.383Z" stroke="#7579FF" stroke-width="9"/>
<path d="M208.075 140.939L227.259 179.51H188.891L208.075 140.939Z" fill="#8D91FF"/>
<path d="M208.075 220.939L188.891 182.367H227.259L208.075 220.939Z" fill="#7579FF"/>
<path d="M208.075 220.939L217.706 182.34L227.215 182.34L208.075 220.939Z" fill="#7918F2"/>
<path d="M208.075 140.939L227.338 179.51L217.706 179.51L208.075 140.939Z" fill="#7918F2"/>
</g>
<defs>
<filter id="filter0_d_1_15" x="14.8574" y="10.4166" width="298.616" height="312.584" filterUnits="userSpaceOnUse" color-interpolation-filters="sRGB">
<feFlood flood-opacity="0" result="BackgroundImageFix"/>
<feColorMatrix in="SourceAlpha" type="matrix" values="0 0 0 0 0 0 0 0 0 0 0 0 0 0 0 0 0 0 127 0" result="hardAlpha"/>
<feOffset dy="4"/>
<feGaussianBlur stdDeviation="2"/>
<feComposite in2="hardAlpha" operator="out"/>
<feColorMatrix type="matrix" values="0 0 0 0 0 0 0 0 0 0 0 0 0 0 0 0 0 0 0.25 0"/>
<feBlend mode="normal" in2="BackgroundImageFix" result="effect1_dropShadow_1_15"/>
<feBlend mode="normal" in="SourceGraphic" in2="effect1_dropShadow_1_15" result="shape"/>
</filter>
</defs>
</svg>
